#!OML:ASF C:\ViconDB\ViconDB\414\Spring2016\041811\Spring2016.ASF
:FULLY-SPECIFIED
:DEGREES
293
root 7.60917 21.108 -44.7615 -177.423 -2.97622 178.102
lowerback 5.07255 0.37727 -4.59444
upperback -1.89241 0.215163 0.866874
thorax -4.83832 0.260028 3.46387
lowerneck -9.8363 -4.60693 -16.3096
upperneck 19.8474 -8.27707 16.8057
head 9.1647 -4.06121 7.66376
rclavicle 2.17421e-016 1.07344e-014
rhumerus 8.07213 7.3754 -41.3906
rradius 122.699
rwrist -11.6236
rhand -36.7693 -26.6999
rfingers 7.12502
rthumb -9.85208 -56.4494
lclavicle 2.17421e-016 1.07344e-014
lhumerus 9.82187 5.72895 39.4233
lradius 108.476
lwrist -1.01574
lhand -47.2871 21.6885
lfingers 7.12502
lthumb -19.9833 50.681
rfemur -1.65696 -17.3183 10.8053
rtibia 40.791
rfoot -29.0502 7.96045
rtoes -14.0404
lfemur -1.43241 3.12432 -13.3134
ltibia 32.5788
lfoot 5.1174 5.62947
ltoes -4.39256
294
root 7.60506 21.2645 -45.0335 -177.739 -2.82969 178.149
lowerback 4.94827 0.365325 -4.50189
upperback -1.19374 0.231059 0.884754
thorax -4.03849 0.235303 3.42763
lowerneck -10.5394 -4.55971 -16.1188
upperneck 20.0564 -8.09577 16.6631
head 9.32361 -3.92929 7.60159
rclavicle -7.20594e-015 9.93923e-016
rhumerus 8.07213 7.3754 -41.3906
rradius 122.699
rwrist -11.6236
rhand -36.7693 -26.6999
rfingers 7.12502
rthumb -9.85208 -56.4494
lclavicle -7.20594e-015 9.93923e-016
lhumerus 8.74063 5.28964 40.3849
lradius 108.784
lwrist -2.08191
lhand -47.5006 21.1966
lfingers 7.12502
lthumb -20.1884 50.1675
rfemur -1.86467 -17.3602 10.9783
rtibia 39.6412
rfoot -28.6166 7.36301
rtoes -13.9548
lfemur -1.59536 3.86314 -13.3439
ltibia 31.9433
lfoot 4.50462 5.17117
ltoes -4.33822
295
root 7.60324 21.4255 -45.3102 -177.822 -2.75516 178.152
lowerback 4.92418 0.38226 -4.46395
upperback -0.784809 0.264763 0.906442
thorax -3.60244 0.233011 3.42568
lowerneck -11.0038 -4.7106 -16.0076
upperneck 20.298 -8.22232 16.4095
head 9.50664 -3.9742 7.47377
rclavicle 5.71506e-016 5.96354e-015
rhumerus 8.07213 7.3754 -41.3906
rradius 122.699
rwrist -11.6236
rhand -36.7693 -26.6999
rfingers 7.12502
rthumb -9.85208 -56.4494
lclavicle 5.71506e-016 5.96354e-015
lhumerus 8.74063 5.28964 40.3849
lradius 108.784
lwrist -2.08191
lhand -47.5006 21.1966
lfingers 7.12502
lthumb -20.1884 50.1675
rfemur -2.28169 -17.3173 11.2142
rtibia 38.3359
rfoot -28.3031 6.77868
rtoes -13.7714
lfemur -2.11856 4.45048 -13.4693
ltibia 31.1664
lfoot 4.23347 4.77049
ltoes -4.59949
296
root 7.60495 21.555 -45.5747 -177.947 -2.63183 178.293
lowerback 4.96944 0.441758 -4.32774
upperback -0.307699 0.356067 0.979827
thorax -3.14088 0.254739 3.41789
lowerneck -11.4533 -4.96175 -16.3601
upperneck 20.3899 -8.53367 16.7438
head 9.71972 -4.0947 7.62347
rclavicle 4.72114e-015 -7.95139e-016
rhumerus 8.07213 7.3754 -41.3906
rradius 122.699
rwrist -11.6236
rhand -36.7693 -26.6999
rfingers 7.12502
rthumb -9.85208 -56.4494
lclavicle 4.72114e-015 -7.95139e-016
lhumerus 8.74063 5.28964 40.3849
lradius 108.784
lwrist -2.08191
lhand -47.5006 21.1966
lfingers 7.12502
lthumb -20.1884 50.1675
rfemur -2.78829 -17.0861 11.669
rtibia 37.012
rfoot -27.9774 6.38486
rtoes -13.6768
lfemur -2.56111 4.85038 -13.4127
ltibia 30.2707
lfoot 3.90089 4.27767
ltoes -5.16913
297
root 7.60724 21.6799 -45.8391 -177.91 -2.58403 178.324
lowerback 5.27678 0.464721 -4.20307
upperback -0.0863834 0.378407 0.95295
thorax -3.08538 0.256175 3.3175
lowerneck -11.5149 -4.98289 -16.402
upperneck 20.32 -8.52933 16.7759
head 9.71067 -4.08391 7.6411
rclavicle 3.47873e-015 0
rhumerus 8.07213 7.3754 -41.3906
rradius 122.699
rwrist -11.6236
rhand -36.7693 -26.6999
rfingers 7.12502
rthumb -9.85208 -56.4494
lclavicle 3.47873e-015 0
lhumerus 8.74063 5.28964 40.3849
lradius 108.784
lwrist -2.08191
lhand -47.5006 21.1966
lfingers 7.12502
lthumb -20.1884 50.1675
rfemur -3.46661 -16.6382 12.1084
rtibia 35.6243
rfoot -27.5009 6.32563
rtoes -13.6323
lfemur -3.14638 4.95749 -13.5441
ltibia 29.2394
lfoot 3.74625 4.0562
ltoes -5.38005
298
root 7.60329 21.7982 -46.098 -177.812 -2.53385 178.13
lowerback 5.52419 0.474665 -4.21235
upperback 0.215178 0.37279 0.824588
thorax -2.91093 0.239674 3.1898
lowerneck -11.8875 -5.05075 -16.4716
upperneck 20.3401 -8.61842 17.0464
head 9.82542 -4.08794 7.74418
rclavicle -6.5102e-015 -6.55989e-015
rhumerus 8.07213 7.3754 -41.3906
rradius 122.699
rwrist -11.6236
rhand -36.7693 -26.6999
rfingers 7.12502
rthumb -9.85208 -56.4494
lclavicle -6.5102e-015 -6.55989e-015
lhumerus 8.74063 5.28964 40.3849
lradius 108.784
lwrist -2.08191
lhand -47.5006 21.1966
lfingers 7.12502
lthumb -20.1884 50.1675
rfemur -4.28486 -16.5579 12.1868
rtibia 34.3072
rfoot -27.1593 6.29304
rtoes -13.9002
lfemur -3.83113 4.79841 -13.9933
ltibia 28.1612
lfoot 3.69131 4.1085
ltoes -5.41879
299
root 7.61185 21.9019 -46.3582 -177.744 -2.52256 178.213
lowerback 5.7531 0.371634 -4.30448
upperback 0.516919 0.214547 0.848078
thorax -2.71409 0.147712 3.27896
lowerneck -12.0075 -5.05584 -16.2557
upperneck 20.1641 -8.61488 17.0539
head 9.7778 -4.05615 7.69981
rclavicle -3.13086e-015 -1.45113e-014
rhumerus 8.07213 7.3754 -41.3906
rradius 122.699
rwrist -11.6236
rhand -36.7693 -26.6999
rfingers 7.12502
rthumb -9.85208 -56.4494
lclavicle -3.13086e-015 -1.45113e-014
lhumerus 8.74063 5.28964 40.3849
lradius 108.784
lwrist -2.08191
lhand -47.5006 21.1966
lfingers 7.12502
lthumb -20.1884 50.1675
rfemur -5.13819 -16.2001 12.7263
rtibia 33.0098
rfoot -26.6205 6.75079
rtoes -13.9741
lfemur -4.51137 4.662 -14.0163
ltibia 27.0098
lfoot 3.87716 4.08942
ltoes -4.88644
300
root 7.6112 21.9883 -46.6106 -177.617 -2.55165 178.223
lowerback 6.38737 0.0683364 -4.59676
upperback 0.474605 -0.244597 0.822092
thorax -3.0718 -0.0696248 3.45851
lowerneck -11.9786 -4.74742 -15.6522
upperneck 20.2687 -8.38158 17.0855
head 9.7334 -3.92025 7.63825
rclavicle 1.52319e-014 2.98177e-015
rhumerus 8.07213 7.3754 -41.3906
rradius 122.699
rwrist -11.6236
rhand -36.7693 -26.6999
rfingers 7.12502
rthumb -9.85208 -56.4494
lclavicle 1.52319e-014 2.98177e-015
lhumerus 8.74063 5.28964 40.3849
lradius 108.784
lwrist -2.08191
lhand -47.5006 21.1966
lfingers 7.12502
lthumb -20.1884 50.1675
rfemur -6.10512 -16.2292 13.1037
rtibia 31.7838
rfoot -26.1976 7.19931
rtoes -14.1129
lfemur -5.29309 4.31014 -14.1807
ltibia 25.8132
lfoot 4.31382 4.22242
ltoes -5.01899
301
root 7.62812 22.0596 -46.8441 -177.509 -2.94166 178.47
lowerback 7.16812 -0.019131 -4.22803
upperback 0.661722 -0.390977 0.536008
thorax -3.30589 -0.153214 2.9725
lowerneck -12.2236 -4.84334 -14.8473
upperneck 20.0999 -8.73622 17.3364
head 9.76769 -4.00172 7.52721
rclavicle 9.79014e-015 2.38542e-015
rhumerus 8.07213 7.3754 -41.3906
rradius 122.699
rwrist -11.6236
rhand -36.7693 -26.6999
rfingers 7.12502
rthumb -9.85208 -56.4494
lclavicle 9.79014e-015 2.38542e-015
lhumerus 8.74063 5.28964 40.3849
lradius 108.784
lwrist -2.08191
lhand -47.5006 21.1966
lfingers 7.12502
lthumb -20.1884 50.1675
rfemur -7.14997 -16.2548 13.9194
rtibia 30.6473
rfoot -25.5088 8.03817
rtoes -14.1219
lfemur -6.25868 3.79694 -13.9444
ltibia 24.6736
lfoot 4.91237 4.26004
ltoes -4.67551
302
root 7.63161 22.1153 -47.0879 -177.475 -3.08825 178.654
lowerback 7.85001 0.0350176 -3.76595
upperback 0.891236 -0.330745 0.34496
thorax -3.45797 -0.138723 2.51248
lowerneck -12.3743 -4.99939 -14.3966
upperneck 19.9238 -9.02813 17.3823
head 9.77439 -4.09107 7.41154
rclavicle -5.40446e-016 3.97569e-016
rhumerus 8.07213 7.3754 -41.3906
rradius 122.699
rwrist -11.6236
rhand -36.7693 -26.6999
rfingers 7.12502
rthumb -9.85208 -56.4494
lclavicle -5.40446e-016 3.97569e-016
lhumerus 8.74063 5.28964 40.3849
lradius 108.784
lwrist -2.08191
lhand -47.5006 21.1966
lfingers 7.12502
lthumb -20.1884 50.1675
rfemur -8.18154 -16.3934 14.5087
rtibia 29.5974
rfoot -25.0874 8.68854
rtoes -14.565
lfemur -7.10329 3.36394 -13.8622
ltibia 23.5551
lfoot 5.40334 4.36518
ltoes -4.95638
303
root 7.63138 22.1475 -47.3318 -177.546 -3.15787 178.762
lowerback 8.62218 0.0132483 -3.67995
upperback 1.21989 -0.402758 0.377483
thorax -3.54343 -0.189664 2.5112
lowerneck -12.7364 -5.09075 -14.6385
upperneck 19.8186 -9.23556 18.0646
head 9.8991 -4.13708 7.68112
rclavicle -7.34261e-015 -2.5345e-015
rhumerus 8.07213 7.3754 -41.3906
rradius 122.699
rwrist -11.6236
rhand -36.7693 -26.6999
rfingers 7.12502
rthumb -9.85208 -56.4494
lclavicle -7.34261e-015 -2.5345e-015
lhumerus 8.74063 5.28964 40.3849
lradius 108.784
lwrist -2.08191
lhand -47.5006 21.1966
lfingers 7.12502
lthumb -20.1884 50.1675
rfemur -9.11951 -16.9919 14.8937
rtibia 28.5725
rfoot -25.1645 9.05737
rtoes -14.8856
lfemur -7.79461 2.93171 -13.8105
ltibia 22.4864
lfoot 6.01084 4.75052
ltoes -4.28903
